<?xml version="1.0" encoding="iso-8859-1"?>
<!-- Generator: Adobe Illustrator 16.0.0, SVG Export Plug-In . SVG Version: 6.00 Build 0)  -->
<!DOCTYPE svg PUBLIC "-//W3C//DTD SVG 1.1//EN" "http://www.w3.org/Graphics/SVG/1.1/DTD/svg11.dtd">
<svg xmlns="http://www.w3.org/2000/svg" xmlns:xlink="http://www.w3.org/1999/xlink" version="1.1" id="Capa_1" x="0px" y="0px" width="512px" height="512px" viewBox="0 0 612 612" style="enable-background:new 0 0 612 612;" xml:space="preserve">
<g>
	<g>
		<path d="M494.122,356.187c3.302-15.037,5.243-31.737,5.243-50.187c0-120.68-83.228-166.455-83.228-166.455v33.957    c0,0,55.485,36.093,55.485,132.498c0,12.346-0.916,23.664-2.497,34.04L494.122,356.187z" fill="#FFFFFF"/>
		<path d="M416.138,305.778L416.138,305.778c-0.11-104.035-83.228-138.491-83.228-138.491v30.822c0,0,47.106,19.975,54.514,89.109    L416.138,305.778z" fill="#FFFFFF"/>
		<path d="M568.666,404.375c8.323-25.939,13.927-58.314,13.927-98.375c0-154.276-83.228-194.198-83.228-194.198v36.01    c0,0,55.485,30.628,55.485,158.188c0,34.29-4.022,61.561-9.877,83.062L568.666,404.375z" fill="#FFFFFF"/>
		<polygon points="54.431,134.052 596.853,491.209 612,467.961 69.578,110.804   " fill="#FFFFFF"/>
		<polygon points="185.736,156.856 305.168,234.063 305.168,84.06   " fill="#FFFFFF"/>
		<path d="M499.365,500.197c0,0,12.9-6.187,28.52-23.081l-24.802-16.035c-2.33,1.747-3.718,2.496-3.718,2.496V500.197z" fill="#FFFFFF"/>
		<path d="M0,246.825v118.377c0,0,0,29.602,28.908,29.602h57.788L305.168,527.94V333.16L106.809,204.962l-20.113,12.262H28.908    C0,217.224,0,246.825,0,246.825z" fill="#FFFFFF"/>
		<path d="M332.91,413.891v30.822c0,0,35.844-14.87,60.479-54.515L371.5,376.05C355.188,404.431,332.91,413.891,332.91,413.891z" fill="#FFFFFF"/>
		<path d="M416.138,437.333v35.122c0,0,21.75-11.957,43.001-39.783l-22.749-14.703C425.432,431.479,416.138,437.333,416.138,437.333    z" fill="#FFFFFF"/>
	</g>
</g>
<g>
</g>
<g>
</g>
<g>
</g>
<g>
</g>
<g>
</g>
<g>
</g>
<g>
</g>
<g>
</g>
<g>
</g>
<g>
</g>
<g>
</g>
<g>
</g>
<g>
</g>
<g>
</g>
<g>
</g>
</svg>
